<?xml version="1.0" encoding="UTF-8" standalone="no"?>
<svg
   xmlns:dc="http://purl.org/dc/elements/1.1/"
   xmlns:cc="http://creativecommons.org/ns#"
   xmlns:rdf="http://www.w3.org/1999/02/22-rdf-syntax-ns#"
   xmlns:svg="http://www.w3.org/2000/svg"
   xmlns="http://www.w3.org/2000/svg"
   xmlns:xlink="http://www.w3.org/1999/xlink"
   id="svg8"
   version="1.1"
   viewBox="0 0 56.276001 17.061001"
   height="17.061001mm"
   width="56.276001mm">
  <defs
     id="defs2">
    <linearGradient
       id="linearGradient1115">
      <stop
         id="stop1111"
         offset="0"
         style="stop-color:#000000;stop-opacity:1" />
      <stop
         id="stop1113"
         offset="1"
         style="stop-color:#0000ff;stop-opacity:1" />
    </linearGradient>
    <style
       id="style940">
      .uuid-fe23a85a-604f-4aab-9574-4df3cec8e20e {
        fill: #231f20;
        stroke-width: 0px;
      }
    </style>
    <linearGradient
       gradientTransform="translate(-123.72975,159.07203)"
       gradientUnits="userSpaceOnUse"
       y2="122.22036"
       x2="139.24541"
       y1="129.44936"
       x1="138.64114"
       id="linearGradient1083"
       xlink:href="#linearGradient1115" />
    <linearGradient
       gradientTransform="translate(-123.72975,159.07203)"
       gradientUnits="userSpaceOnUse"
       y2="136.72115"
       x2="170.54376"
       y1="130.0303"
       x1="169.92957"
       id="linearGradient1109"
       xlink:href="#linearGradient1115" />
  </defs>
  <metadata
     id="metadata5">
    <rdf:RDF>
      <cc:Work
         rdf:about="">
        <dc:format>image/svg+xml</dc:format>
        <dc:type
           rdf:resource="http://purl.org/dc/dcmitype/StillImage" />
        <dc:title></dc:title>
      </cc:Work>
    </rdf:RDF>
  </metadata>
  <g
     transform="translate(0,-279.939)"
     id="layer1">
    <path
       style="fill:#d3d3d3;stroke-width:0px"
       class="uuid-fe23a85a-604f-4aab-9574-4df3cec8e20e"
       d="m 55.151706,287.49255 c 0.0539,-0.013 0.10782,-0.0277 0.16313,-0.0406 0.009,-0.003 0.0213,-0.003 0.0326,-0.004 0,-0.20791 0,-0.41421 0,-0.62214 -8.82993,2.29524 -17.65984,-0.28591 -26.49118,-2.91741 -0.18582,-0.0553 -0.37164,-0.11043 -0.55887,-0.16731 -8.82993,-2.62987 -17.66127,-5.20939 -26.4911896,-2.91414 0,0.20955 0,0.41748 0,0.62702 0.0609,0.007 0.10639,0.0569 0.10639,0.12994 0,0.1136 0,0.22741 0,0.34112 0,0.0731 -0.0454,0.14619 -0.10639,0.18357 0,0.0569 0,0.11359 0,0.17055 0.1078,-0.0277 0.21702,-0.0553 0.32482,-0.0829 0,1.99798 0,3.99596 0,5.99233 -0.1078,0.0259 -0.21702,0.0535 -0.32482,0.083 v 0.16731 c 0.0609,0.007 0.10639,0.0569 0.10639,0.12994 0,0.11372 0,0.22741 0,0.34112 0,0.0731 -0.0454,0.1462 -0.10639,0.18357 0,0.20954 0,0.41745 0,0.62698 8.8299196,-2.29523 17.6612596,0.28592 26.4911896,2.9174 0.18581,0.0553 0.37163,0.11043 0.55887,0.16731 8.82992,2.63151 17.66125,5.21103 26.49118,2.91578 0,-0.20793 0,-0.41422 0,-0.62214 -0.009,0.004 -0.0213,0.007 -0.0326,0.0106 -0.0539,0.0146 -0.10781,0.0277 -0.1617,0.0406 -0.0851,0.0211 -0.15745,-0.0342 -0.15745,-0.1267 v -0.34171 c 0,-0.0892 0.0724,-0.18191 0.15745,-0.20466 0.0539,-0.013 0.10781,-0.0276 0.1617,-0.0423 0.0114,-0.003 0.0213,-0.003 0.0312,-0.004 0,-2.10683 0,-4.21367 0,-6.32047 -0.0114,0.004 -0.0213,0.007 -0.0326,0.0106 -0.0539,0.0146 -0.1078,0.0277 -0.1617,0.0406 -0.0851,0.0211 -0.15745,-0.0341 -0.15745,-0.1267 v -0.34112 c 0,-0.0892 0.0723,-0.18191 0.15745,-0.20466 z m -27.72949,-3.22765 c 0,-0.0892 0.0695,-0.14456 0.15745,-0.11861 0.0539,0.0162 0.1078,0.0324 0.16312,0.0486 0.0851,0.0259 0.15462,0.12183 0.15462,0.21118 0,0.11372 0,0.22741 0,0.34112 0,0.0926 -0.0694,0.14456 -0.15462,0.11859 -0.0539,-0.0162 -0.10781,-0.0324 -0.1617,-0.0487 -0.088,-0.0259 -0.15745,-0.12017 -0.15745,-0.21117 0,-0.11361 0,-0.22741 0,-0.34113 z m -1.08371,-0.32 c 0,-0.0892 0.0724,-0.14457 0.15746,-0.11859 0.0539,0.0162 0.10779,0.0324 0.16311,0.0471 0.0851,0.0259 0.15746,0.12182 0.15746,0.21116 0,0.11361 0,0.22742 0,0.34113 0,0.0926 -0.0724,0.14456 -0.15746,0.11859 -0.0539,-0.0162 -0.10779,-0.0324 -0.16169,-0.0471 -0.0851,-0.0244 -0.15746,-0.1186 -0.15746,-0.21116 0,-0.11361 0,-0.22742 0,-0.34113 z m -1.08087,-0.31514 c 0,-0.0894 0.0694,-0.14457 0.15746,-0.12017 0.0526,0.0146 0.10638,0.0308 0.16028,0.0472 0.088,0.0258 0.15746,0.12184 0.15746,0.21118 0,0.1136 0,0.22741 0,0.34111 0,0.0926 -0.0695,0.14458 -0.15746,0.11861 -0.0539,-0.0162 -0.10638,-0.0308 -0.16028,-0.0472 -0.088,-0.0258 -0.15746,-0.1186 -0.15746,-0.21118 0,-0.11371 0,-0.22741 0,-0.34111 z m -1.0837,-0.31023 c 0,-0.0892 0.0724,-0.14459 0.15745,-0.12019 0.0539,0.0146 0.1078,0.0308 0.16312,0.0455 0.0851,0.0244 0.15746,0.12018 0.15746,0.20955 0,0.11361 0,0.22741 0,0.34113 0,0.0926 -0.0724,0.14457 -0.15746,0.12016 -0.0539,-0.0146 -0.1078,-0.0308 -0.1617,-0.0456 -0.0851,-0.0244 -0.15745,-0.11689 -0.15745,-0.20954 0,-0.11372 0,-0.2274 0,-0.34112 z m -1.08087,-0.30215 c 0,-0.0894 0.0694,-0.1462 0.15461,-0.12346 0.0539,0.0146 0.10781,0.0292 0.16314,0.0453 0.088,0.0245 0.15744,0.11861 0.15744,0.20955 0,0.1136 0,0.22741 0,0.34112 0,0.0926 -0.0694,0.14622 -0.15744,0.12184 -0.0539,-0.0146 -0.10782,-0.0292 -0.16171,-0.0456 -0.0851,-0.0228 -0.15461,-0.11536 -0.15461,-0.20792 0,-0.1136 0,-0.22741 0,-0.34112 z m -1.0837,-0.29239 c 0,-0.0892 0.0724,-0.14619 0.15745,-0.12345 0.0539,0.0146 0.1078,0.0292 0.16313,0.0439 0.0851,0.0228 0.15744,0.1169 0.15744,0.20792 0,0.1136 0,0.22741 0,0.34113 0,0.0926 -0.0724,0.14618 -0.15744,0.12344 -0.0539,-0.0146 -0.10781,-0.0292 -0.16171,-0.0439 -0.0851,-0.0228 -0.15745,-0.1136 -0.15745,-0.20631 0,-0.11359 0,-0.2274 0,-0.3411 z m -1.08086,-0.2794 c 0,-0.0893 0.0695,-0.14781 0.1546,-0.1267 0.0539,0.013 0.1078,0.0277 0.16313,0.0406 0.088,0.0227 0.15745,0.11536 0.15745,0.20628 0,0.11361 0,0.22742 0,0.34113 0,0.0926 -0.0694,0.14783 -0.15745,0.12508 -0.0539,-0.013 -0.10779,-0.0276 -0.16313,-0.0406 -0.0851,-0.0211 -0.1546,-0.11207 -0.1546,-0.20468 0,-0.1136 0,-0.2274 0,-0.34112 z m -1.08371,-0.26638 c 0,-0.0894 0.0694,-0.14948 0.15745,-0.12834 0.054,0.013 0.1078,0.0258 0.16312,0.0391 0.0851,0.0211 0.15745,0.11372 0.15745,0.20306 0,0.11359 0,0.22741 0,0.3411 0,0.0926 -0.0724,0.14784 -0.15745,0.1267 -0.0539,-0.013 -0.1078,-0.0258 -0.16312,-0.0391 -0.088,-0.0211 -0.15745,-0.11043 -0.15745,-0.20304 0,-0.11372 0,-0.22742 0,-0.34112 z m -1.0837,-0.25017 c 0,-0.0892 0.0724,-0.14944 0.15743,-0.12995 0.0539,0.013 0.10782,0.0244 0.16314,0.0374 0.0851,0.0195 0.15746,0.11207 0.15746,0.20142 v 0.34112 c 0,0.0926 -0.0724,0.14944 -0.15746,0.12995 -0.0539,-0.013 -0.1078,-0.0245 -0.16314,-0.0374 -0.085,-0.0195 -0.15743,-0.10889 -0.15743,-0.1998 0,-0.1136 0,-0.22741 0,-0.34111 z m -1.08087,-0.23229 c 0,-0.0894 0.0695,-0.15106 0.15746,-0.1332 0.0539,0.0106 0.10779,0.0228 0.1631,0.0341 0.0851,0.0179 0.15462,0.10891 0.15462,0.19819 v 0.34111 c 0,0.0926 -0.0694,0.15107 -0.15462,0.1332 -0.0539,-0.0106 -0.1078,-0.0228 -0.1617,-0.0342 -0.088,-0.018 -0.15744,-0.10562 -0.15744,-0.19819 0,-0.11359 0,-0.2274 0,-0.3411 z m -1.08371,-0.21279 c 0,-0.0894 0.0724,-0.15108 0.15746,-0.13483 0.0539,0.01 0.1078,0.0211 0.16312,0.0308 0.0851,0.0162 0.15744,0.10562 0.15744,0.19491 0,0.1136 0,0.22742 0,0.34112 0,0.0926 -0.0724,0.15108 -0.15744,0.13484 -0.0539,-0.01 -0.10782,-0.0211 -0.16312,-0.0308 -0.0851,-0.0162 -0.15746,-0.10235 -0.15746,-0.19492 z m -1.08086,-0.19004 c 0,-0.0892 0.0694,-0.15433 0.15745,-0.13971 0.0539,0.007 0.10638,0.018 0.16027,0.0277 0.088,0.0146 0.15746,0.10234 0.15746,0.19168 v 0.34111 c 0,0.0926 -0.0694,0.15268 -0.15746,0.13808 -0.0539,-0.01 -0.10639,-0.018 -0.16027,-0.0276 -0.088,-0.0146 -0.15745,-0.0992 -0.15745,-0.19168 v -0.34111 z m -1.08087,-0.1657 c 0,-0.0892 0.0724,-0.15593 0.15745,-0.14294 0.0539,0.007 0.10781,0.0162 0.16313,0.0244 0.0851,0.013 0.15743,0.0991 0.15743,0.18844 0,0.1136 0,0.22742 0,0.34112 0,0.0926 -0.0724,0.1543 -0.15743,0.14131 -0.0539,-0.007 -0.10782,-0.0162 -0.16313,-0.0244 -0.0851,-0.013 -0.15745,-0.0959 -0.15745,-0.18843 0,-0.1136 0,-0.22742 0,-0.34112 z m -1.08086,-0.14132 c 0,-0.0892 0.0694,-0.15758 0.15744,-0.14619 0.0539,0.007 0.10639,0.013 0.16028,0.0195 0.088,0.0106 0.15745,0.0959 0.15745,0.18519 0,0.11359 0,0.22741 0,0.3411 0,0.0926 -0.0694,0.15596 -0.15745,0.14622 -0.0539,-0.007 -0.10638,-0.013 -0.16028,-0.0195 -0.088,-0.0106 -0.15744,-0.091 -0.15744,-0.18356 0,-0.11371 0,-0.22742 0,-0.34111 z m -1.08372,-0.1136 c 0,-0.0892 0.0723,-0.15918 0.15745,-0.15107 0.0539,0.004 0.10781,0.01 0.16313,0.0162 0.0851,0.007 0.15744,0.091 0.15744,0.18031 0,0.11361 0,0.22741 0,0.34113 0,0.0926 -0.0723,0.15755 -0.15744,0.14942 -0.0539,-0.004 -0.10781,-0.0106 -0.16313,-0.0162 -0.0851,-0.007 -0.15745,-0.0877 -0.15745,-0.18032 0,-0.1136 0,-0.22741 0,-0.34111 z m -1.08086,-0.0829 c 0,-0.0892 0.0694,-0.16081 0.15462,-0.15431 0.0539,0.003 0.10779,0.007 0.16311,0.0106 0.088,0.007 0.15746,0.0877 0.15746,0.17706 v 0.34112 c 0,0.0926 -0.0694,0.15918 -0.15746,0.1543 -0.0539,-0.003 -0.10779,-0.007 -0.16311,-0.0106 -0.0851,-0.007 -0.15462,-0.0828 -0.15462,-0.17544 0,-0.11361 0,-0.2274 0,-0.34111 z m -1.0837,-0.052 c 0,-0.0894 0.0694,-0.16244 0.15745,-0.1592 0.0539,10e-4 0.1078,0.004 0.16312,0.007 0.0851,0.003 0.15745,0.0828 0.15745,0.17217 0,0.11361 0,0.22742 0,0.34113 0,0.0926 -0.0724,0.16242 -0.15745,0.15756 -0.0539,-0.001 -0.1078,-0.004 -0.16312,-0.007 -0.088,-0.003 -0.15745,-0.078 -0.15745,-0.17055 z m -1.0836996,-0.0179 c 0,-0.0894 0.0723,-0.16569 0.15744,-0.16406 0.0539,0 0.10781,0 0.16312,0 0.088,0 0.15745,0.078 0.15745,0.1673 v 0.34113 c 0,0.0926 -0.0694,0.16405 -0.15745,0.16243 -0.0539,0 -0.10781,0 -0.16312,0 -0.0851,0 -0.15744,-0.0731 -0.15744,-0.16567 z m -1.08088,0.0179 c 0,-0.0894 0.0695,-0.16732 0.15745,-0.17057 0.0539,0 0.10781,-0.003 0.1617,-0.004 0.0851,-10e-4 0.15461,0.0731 0.15461,0.16243 0,0.11361 0,0.22742 0,0.34114 0,0.0926 -0.0694,0.16566 -0.15461,0.16893 -0.0539,0 -0.1078,0.003 -0.1617,0.004 -0.088,0.003 -0.15745,-0.0682 -0.15745,-0.16082 0,-0.1136 0,-0.22741 0,-0.34112 z m -1.0837,0.0553 c 0,-0.0892 0.0724,-0.17054 0.15745,-0.17541 0.0539,-0.003 0.1078,-0.007 0.16311,-0.01 0.0851,-0.004 0.15746,0.0666 0.15746,0.15593 v 0.34114 c 0,0.0926 -0.0724,0.16893 -0.15746,0.17379 -0.0539,0.003 -0.10779,0.007 -0.16169,0.01 -0.0851,0.004 -0.15746,-0.0618 -0.15746,-0.15431 0,-0.11361 0,-0.22742 0,-0.34114 z m -1.08088,0.0959 c 0,-0.0894 0.0694,-0.17218 0.15746,-0.18193 0.0539,-0.004 0.1078,-0.0106 0.16314,-0.0162 0.085,-0.007 0.1546,0.0618 0.1546,0.15107 0,0.11372 0,0.2274 0,0.34111 0,0.0926 -0.0695,0.17057 -0.1546,0.17869 -0.054,0.004 -0.10782,0.0106 -0.16171,0.0162 -0.088,0.007 -0.15746,-0.0568 -0.15746,-0.14944 0,-0.11372 0,-0.22742 0,-0.34113 z m -1.08369,0.13646 c 0,-0.0893 0.0723,-0.17544 0.15745,-0.18844 0.0539,-0.007 0.1078,-0.0146 0.16312,-0.0228 0.0851,-0.0106 0.15745,0.0553 0.15745,0.14457 0,0.11361 0,0.22741 0,0.34112 0,0.0926 -0.0724,0.17381 -0.15745,0.18518 -0.054,0.007 -0.1078,0.0146 -0.16171,0.0228 -0.0851,0.0106 -0.15744,-0.0503 -0.15744,-0.14293 v -0.34112 z m -1.08087,0.1803 c 0,-0.0894 0.0695,-0.17869 0.15744,-0.19494 0.0525,-0.01 0.10639,-0.0195 0.1603,-0.0277 0.088,-0.0146 0.15744,0.0487 0.15744,0.13809 0,0.1136 0,0.2274 0,0.34111 0,0.0926 -0.0695,0.17705 -0.15744,0.19167 -0.0539,0.01 -0.10639,0.0195 -0.1603,0.0292 -0.088,0.0162 -0.15744,-0.0439 -0.15744,-0.13645 z m -1.0837,0.22579 c 0,-0.0892 0.0724,-0.18194 0.15744,-0.20142 0.0539,-0.0106 0.10781,-0.0244 0.16313,-0.0357 0.0851,-0.0179 0.15744,0.0423 0.15744,0.13159 0,0.11359 0,0.2274 0,0.3411 0,0.0926 -0.0724,0.18031 -0.15744,0.19818 -0.0539,0.0106 -0.10781,0.0244 -0.16313,0.0356 -0.0851,0.0195 -0.15744,-0.0374 -0.15744,-0.12993 0,-0.11361 0,-0.22742 0,-0.34113 z m 0.47801,7.22363 c 0,0.0926 -0.0724,0.18029 -0.15744,0.19817 -0.0539,0.0106 -0.10781,0.0244 -0.16313,0.0356 -0.0851,0.0195 -0.15744,-0.0373 -0.15744,-0.12997 0,-0.11372 0,-0.2274 0,-0.34111 0,-0.0894 0.0724,-0.18192 0.15744,-0.20143 0.0539,-0.013 0.10781,-0.0244 0.16313,-0.0356 0.0851,-0.0179 0.15744,0.0423 0.15744,0.13158 0,0.11372 0,0.2274 0,0.3411 z m 1.08087,-0.2063 c 0,0.0926 -0.0695,0.17705 -0.15744,0.19168 -0.0539,0.01 -0.10639,0.0195 -0.1603,0.0292 -0.088,0.0162 -0.15744,-0.0439 -0.15744,-0.13646 v -0.34112 c 0,-0.0894 0.0695,-0.17868 0.15744,-0.19494 0.0539,-0.01 0.10639,-0.0194 0.1603,-0.0276 0.088,-0.0162 0.15744,0.0487 0.15744,0.13806 0,0.11372 0,0.22743 0,0.34114 z m 1.08371,-0.16082 c 0,0.0925 -0.0724,0.17544 -0.15745,0.18519 -0.054,0.007 -0.1078,0.0146 -0.16171,0.0228 -0.0851,0.0106 -0.15744,-0.0503 -0.15744,-0.14294 0,-0.11359 0,-0.22742 0,-0.34111 0,-0.0892 0.0724,-0.17543 0.15744,-0.18843 0.0539,-0.007 0.10781,-0.0146 0.16171,-0.0228 0.0851,-0.0106 0.15745,0.0553 0.15745,0.14455 0,0.11372 0,0.22741 0,0.34112 z m 1.08087,-0.1186 c 0,0.0926 -0.0695,0.17218 -0.1546,0.18031 -0.054,0.004 -0.10782,0.01 -0.16171,0.0162 -0.088,0.007 -0.15746,-0.0569 -0.15746,-0.14945 0,-0.11372 0,-0.2274 0,-0.34111 0,-0.0894 0.0694,-0.17219 0.15746,-0.18192 0.054,-0.004 0.10779,-0.0106 0.16311,-0.0162 0.0851,-0.007 0.15461,0.0618 0.15461,0.15107 v 0.34112 z m 1.0837,-0.078 c 0,0.0926 -0.0724,0.16892 -0.15746,0.1738 -0.0539,0.003 -0.10779,0.007 -0.16311,0.01 -0.0851,0.004 -0.15745,-0.0618 -0.15745,-0.1543 v -0.34112 c 0,-0.0892 0.0724,-0.17057 0.15745,-0.17545 0.0539,-0.003 0.1078,-0.007 0.16311,-0.01 0.0851,-0.004 0.15746,0.0666 0.15746,0.15593 0,0.11372 0,0.22743 0,0.34113 z m 1.08087,-0.039 c 0,0.0926 -0.0694,0.1657 -0.15461,0.16893 -0.0539,0 -0.10781,0.003 -0.16313,0.004 -0.088,0.003 -0.15745,-0.0682 -0.15745,-0.16081 v -0.34113 c 0,-0.0892 0.0695,-0.16731 0.15745,-0.17055 0.0539,0 0.10781,-0.003 0.1617,-0.004 0.0851,-0.001 0.15461,0.0731 0.15461,0.16245 0,0.11372 0,0.2274 0,0.34111 z m 1.0837,-0.001 c 0,0.0926 -0.0694,0.16407 -0.15745,0.16244 -0.0539,0 -0.10781,0 -0.16312,0 -0.0851,0 -0.15744,-0.0731 -0.15744,-0.16568 v -0.34112 c 0,-0.0892 0.0723,-0.16569 0.15744,-0.16407 0.0539,0 0.10781,0 0.1617,0 0.088,0 0.15746,0.078 0.15746,0.16731 0,0.1136 0,0.22741 0,0.34112 z m 1.0837096,0.0324 c 0,0.0925 -0.0724,0.16243 -0.15745,0.15917 -0.0539,-10e-4 -0.1078,-0.004 -0.16312,-0.007 -0.088,-0.003 -0.15745,-0.078 -0.15745,-0.17056 0,-0.11373 0,-0.22741 0,-0.34112 0,-0.0894 0.0694,-0.16243 0.15745,-0.15919 0.0539,10e-4 0.1078,0.003 0.16312,0.007 0.0851,0.003 0.15745,0.083 0.15745,0.17219 v 0.34109 z m 0.34043,-0.64976 c -2.7901196,-0.15431 -5.5802296,0.013 -8.3717596,0.65299 0,-1.99797 0,-3.99597 0,-5.99235 2.79012,-0.64 5.58022,-0.80731 8.3717596,-0.653 0,1.99801 0,3.99599 0,5.99398 z m 0.74044,0.71472 c 0,0.0926 -0.0694,0.15919 -0.15746,0.15432 -0.0539,-0.003 -0.10779,-0.007 -0.16171,-0.0106 -0.0851,-0.007 -0.1546,-0.083 -0.1546,-0.17543 0,-0.11372 0,-0.22744 0,-0.34113 0,-0.0892 0.0694,-0.16081 0.1546,-0.15594 0.0539,0.003 0.10782,0.007 0.16314,0.0106 0.088,0.007 0.15744,0.0877 0.15744,0.17706 v 0.34113 z m 1.08369,0.0959 c 0,0.0925 -0.0723,0.15757 -0.15744,0.14945 -0.0539,-0.004 -0.10781,-0.0106 -0.16313,-0.0162 -0.0851,-0.007 -0.15745,-0.0877 -0.15745,-0.18031 0,-0.11371 0,-0.22743 0,-0.34114 0,-0.0892 0.0723,-0.15917 0.15745,-0.15104 0.0539,0.004 0.10781,0.01 0.16171,0.0162 0.0851,0.007 0.15744,0.091 0.15744,0.1803 0,0.11373 0,0.22743 0,0.34113 z m 1.08087,0.12509 c 0,0.0926 -0.0694,0.15593 -0.15745,0.14618 -0.0539,-0.007 -0.10638,-0.013 -0.16028,-0.0195 -0.088,-0.0106 -0.15744,-0.091 -0.15744,-0.18356 0,-0.11372 0,-0.22743 0,-0.34113 0,-0.0894 0.0694,-0.15756 0.15744,-0.1462 0.0525,0.007 0.10639,0.013 0.16028,0.0195 0.088,0.0106 0.15745,0.0959 0.15745,0.18518 0,0.11373 0,0.22742 0,0.34113 z m 1.0837,0.15268 c 0,0.0926 -0.0724,0.15432 -0.15743,0.14134 -0.0539,-0.007 -0.10782,-0.0162 -0.16313,-0.0245 -0.0851,-0.013 -0.15745,-0.0959 -0.15745,-0.18842 v -0.34112 c 0,-0.0893 0.0724,-0.15595 0.15745,-0.14295 0.0539,0.007 0.10781,0.0162 0.1617,0.0244 0.0851,0.013 0.15745,0.0991 0.15745,0.18842 0,0.11372 0,0.22741 0,0.34112 z m 1.07804,0.17706 c 0,0.0926 -0.0694,0.15268 -0.15746,0.13806 -0.0525,-0.01 -0.10639,-0.0179 -0.16027,-0.0277 -0.088,-0.0146 -0.15745,-0.0991 -0.15745,-0.19167 v -0.34113 c 0,-0.0892 0.0694,-0.15431 0.15745,-0.13969 0.0539,0.007 0.10638,0.0179 0.16027,0.0276 0.088,0.0146 0.15746,0.10235 0.15746,0.19169 v 0.34112 z m 1.0837,0.19981 c 0,0.0926 -0.0724,0.15106 -0.15744,0.13482 -0.0539,-0.01 -0.10782,-0.0211 -0.16312,-0.0308 -0.0851,-0.0162 -0.15746,-0.10234 -0.15746,-0.19491 0,-0.11373 0,-0.22744 0,-0.34113 0,-0.0892 0.0724,-0.15269 0.15746,-0.13646 0.0539,0.01 0.1078,0.0211 0.16312,0.0308 0.0851,0.0162 0.15744,0.10563 0.15744,0.19492 0,0.11372 0,0.22741 0,0.34113 z m 1.08087,0.22091 c 0,0.0926 -0.0694,0.15106 -0.15462,0.13319 -0.0539,-0.0106 -0.1078,-0.0228 -0.1617,-0.0341 -0.088,-0.018 -0.15744,-0.10563 -0.15744,-0.19654 v -0.34113 c 0,-0.0894 0.0694,-0.15107 0.15744,-0.1332 0.0539,0.0106 0.10782,0.0227 0.16312,0.0341 0.0851,0.0179 0.15463,0.10879 0.15463,0.19818 0,0.1136 0,0.22742 0,0.34112 z m 1.08372,0.24041 c 0,0.0926 -0.0724,0.1478 -0.15746,0.12832 -0.0539,-0.013 -0.1078,-0.0244 -0.16314,-0.0374 -0.085,-0.0195 -0.15743,-0.10877 -0.15743,-0.19979 v -0.34113 c 0,-0.0893 0.0724,-0.14944 0.15743,-0.12993 0.0539,0.013 0.10782,0.0244 0.16314,0.0374 0.0851,0.0195 0.15746,0.11208 0.15746,0.20141 0,0.11361 0,0.22743 0,0.34114 z m 0.46808,-0.55717 c -2.79011,-0.66112 -5.58023,-1.15981 -8.37176,-1.34499 0,-1.99798 0,-3.99597 0,-5.99397 2.79011,0.18517 5.58022,0.68549 8.37176,1.34497 0,1.99801 0,3.996 0,5.99399 z m 0.61561,0.81545 c 0,0.0926 -0.0724,0.1478 -0.15745,0.12669 -0.0539,-0.013 -0.1078,-0.0259 -0.16312,-0.039 -0.088,-0.0211 -0.15745,-0.11054 -0.15745,-0.20305 v -0.34111 c 0,-0.0894 0.0694,-0.14944 0.15745,-0.12834 0.054,0.013 0.1078,0.0258 0.16312,0.0391 0.0851,0.0211 0.15745,0.11359 0.15745,0.20304 0,0.1136 0,0.22742 0,0.34112 z m 1.08087,0.27127 c 0,0.0926 -0.0694,0.14781 -0.15745,0.12507 -0.0539,-0.0146 -0.10779,-0.0277 -0.16313,-0.0423 -0.0851,-0.0211 -0.1546,-0.11207 -0.1546,-0.20466 0,-0.11373 0,-0.22741 0,-0.34112 0,-0.0892 0.0695,-0.14783 0.1546,-0.12671 0.0539,0.013 0.1078,0.0276 0.16171,0.0406 0.088,0.0228 0.15744,0.11536 0.15744,0.2063 0,0.11359 0,0.22741 0,0.34113 z m 1.0837,0.28588 c 0,0.0926 -0.0724,0.14618 -0.15744,0.12346 -0.0539,-0.0146 -0.10781,-0.0292 -0.16171,-0.0439 -0.0851,-0.0228 -0.15745,-0.11372 -0.15745,-0.20631 0,-0.11372 0,-0.22741 0,-0.34112 0,-0.0892 0.0724,-0.14619 0.15745,-0.12346 0.0539,0.0146 0.10779,0.0292 0.16311,0.0439 0.0851,0.0228 0.15745,0.11859 0.15745,0.20793 v 0.3411 z m 1.08087,0.29563 c 0,0.0926 -0.0694,0.14621 -0.15744,0.12184 -0.0539,-0.0146 -0.10782,-0.0308 -0.16314,-0.0454 -0.0851,-0.0228 -0.15461,-0.11537 -0.15461,-0.20793 0,-0.11371 0,-0.22741 0,-0.34111 0,-0.0894 0.0694,-0.14619 0.15461,-0.12345 0.0539,0.0146 0.10781,0.0292 0.16171,0.0455 0.088,0.0244 0.15745,0.12017 0.15745,0.20954 0,0.11372 0,0.22741 0,0.34112 z m 1.08371,0.30539 c 0,0.0925 -0.0724,0.14457 -0.15746,0.12016 -0.0539,-0.0162 -0.1078,-0.0308 -0.16312,-0.0471 -0.0851,-0.0244 -0.15745,-0.1169 -0.15745,-0.20954 0,-0.11372 0,-0.22744 0,-0.34113 0,-0.0894 0.0724,-0.14458 0.15745,-0.12016 0.0539,0.0146 0.1078,0.0308 0.16171,0.0454 0.085,0.0244 0.15745,0.12016 0.15745,0.20955 0,0.11371 0,0.2274 0,0.3411 z m 1.08087,0.31188 c 0,0.0926 -0.0695,0.14457 -0.15746,0.12017 -0.0539,-0.0162 -0.10638,-0.0308 -0.16028,-0.0471 -0.088,-0.0259 -0.15746,-0.11861 -0.15746,-0.21117 0,-0.11372 0,-0.22742 0,-0.34112 0,-0.0894 0.0694,-0.14458 0.15746,-0.12018 0.0539,0.0146 0.10638,0.0308 0.16028,0.0471 0.088,0.0258 0.15746,0.12184 0.15746,0.21116 0,0.1136 0,0.22742 0,0.34112 z m 1.0837,0.31839 c 0,0.0926 -0.0724,0.14456 -0.15746,0.1186 -0.0539,-0.0162 -0.10779,-0.0324 -0.16311,-0.0472 -0.0851,-0.0244 -0.15746,-0.11859 -0.15746,-0.21117 0,-0.11372 0,-0.2274 0,-0.34111 0,-0.0892 0.0724,-0.14457 0.15746,-0.1186 0.0539,0.0162 0.10779,0.0324 0.1617,0.0471 0.0851,0.0244 0.15745,0.12183 0.15745,0.21117 0,0.1136 0,0.22742 0,0.34112 z m 1.08087,0.32162 c 0,0.0926 -0.0694,0.14457 -0.15462,0.11862 -0.0539,-0.0162 -0.10781,-0.0324 -0.16312,-0.0487 -0.088,-0.0258 -0.15745,-0.12017 -0.15745,-0.21117 0,-0.11359 0,-0.2274 0,-0.3411 0,-0.0894 0.0695,-0.14459 0.15745,-0.11861 0.0539,0.0162 0.1078,0.0324 0.1617,0.0487 0.0851,0.0258 0.15462,0.12182 0.15462,0.21117 0,0.11372 0,0.22741 0,0.34112 z m 0.4,-0.54741 c -2.72628,-0.81219 -5.45114,-1.61951 -8.17743,-2.28063 0,-1.998 0,-3.99598 0,-5.99399 2.79011,0.67575 5.58023,1.50582 8.37035,2.3375 0,1.99798 0,3.99599 0,5.99397 -0.0652,-0.0195 -0.12909,-0.0391 -0.19292,-0.0585 z m 25.61458,-3.24876 c 0,-0.0894 0.0694,-0.17868 0.15744,-0.19819 0.0539,-0.0106 0.10781,-0.0228 0.16312,-0.0341 0.0851,-0.0179 0.15461,0.0423 0.15461,0.13157 v 0.34112 c 0,0.0926 -0.0695,0.18031 -0.15461,0.19818 -0.0539,0.0106 -0.1078,0.0228 -0.1617,0.0341 -0.088,0.0179 -0.15745,-0.0406 -0.15745,-0.1332 v -0.34112 z m -1.08371,0.19655 c 0,-0.0892 0.071,-0.17707 0.15745,-0.19006 0.0539,-0.007 0.1078,-0.018 0.16312,-0.0277 0.0851,-0.0146 0.15744,0.0487 0.15744,0.13807 0,0.11372 0,0.22742 0,0.34112 0,0.0926 -0.0724,0.17868 -0.15744,0.19331 -0.0539,0.01 -0.10781,0.0179 -0.16171,0.0276 -0.0851,0.0146 -0.15744,-0.0471 -0.15744,-0.1397 v -0.34114 z m -1.08086,0.15103 c 0,-0.0894 0.0694,-0.17381 0.15743,-0.18518 0.0525,-0.007 0.10639,-0.013 0.16029,-0.0211 0.088,-0.0106 0.15745,0.0535 0.15745,0.14457 0,0.11372 0,0.22742 0,0.34114 0,0.0926 -0.0694,0.17542 -0.15745,0.18679 -0.0525,0.007 -0.10638,0.013 -0.16029,0.0211 -0.088,0.0106 -0.15743,-0.0535 -0.15743,-0.14621 z m -1.08372,0.10878 c 0,-0.0893 0.0723,-0.17055 0.15746,-0.17868 0.0539,-0.004 0.10921,-0.01 0.16311,-0.0146 0.0851,-0.007 0.15745,0.0602 0.15745,0.14943 v 0.34113 c 0,0.0926 -0.0723,0.17219 -0.15745,0.18032 -0.0539,0.004 -0.10779,0.01 -0.16311,0.0146 -0.0851,0.007 -0.15746,-0.0602 -0.15746,-0.15108 z m -1.08086,0.0682 c 0,-0.0894 0.0694,-0.16894 0.15462,-0.17219 0.0539,-0.003 0.10921,-0.007 0.16311,-0.007 0.088,-0.004 0.15745,0.0666 0.15745,0.15593 v 0.34113 c 0,0.0926 -0.0694,0.16893 -0.15745,0.17381 -0.0539,0.003 -0.10779,0.007 -0.16311,0.007 -0.0851,0.004 -0.15462,-0.0649 -0.15462,-0.15757 0,-0.11361 0,-0.2274 0,-0.34111 z m -1.0837,0.0308 c 0,-0.0894 0.0723,-0.16569 0.15744,-0.16732 0.0539,0 0.1078,-10e-4 0.1617,-0.003 0.0851,-10e-4 0.15746,0.0715 0.15746,0.16082 0,0.1136 0,0.22742 0,0.34112 0,0.0926 -0.0723,0.16732 -0.15746,0.16895 -0.0539,0 -0.10779,0.001 -0.1617,0.003 -0.0851,0 -0.15744,-0.0715 -0.15744,-0.16245 0,-0.11359 0,-0.22741 0,-0.3411 z m -1.08087,-0.007 c 0,-0.0894 0.0694,-0.16406 0.15461,-0.16244 0.0539,0 0.1078,0 0.16312,0.001 0.088,0 0.15745,0.078 0.15745,0.16732 v 0.34114 c 0,0.0926 -0.0695,0.16405 -0.15745,0.16405 -0.0539,0 -0.1078,0 -0.16312,-0.001 -0.0851,0 -0.15461,-0.0763 -0.15461,-0.16894 z m -1.08371,-0.0406 c 0,-0.0894 0.0695,-0.16245 0.15745,-0.15758 0.0539,0.003 0.10781,0.004 0.16312,0.007 0.0851,0.003 0.15746,0.0829 0.15746,0.17219 v 0.3411 c 0,0.0926 -0.0724,0.16245 -0.15746,0.15921 -0.0539,-10e-4 -0.1078,-0.004 -0.16312,-0.007 -0.088,-0.004 -0.15745,-0.0813 -0.15745,-0.1738 0,-0.11372 0,-0.22743 0,-0.34112 z m -1.0837,-0.0731 c 0,-0.0894 0.0724,-0.15919 0.15746,-0.15268 0.0539,0.004 0.10779,0.007 0.1631,0.013 0.0851,0.007 0.15746,0.086 0.15746,0.17706 v 0.34112 c 0,0.0926 -0.071,0.16081 -0.15746,0.15431 -0.054,-0.003 -0.10779,-0.007 -0.1631,-0.013 -0.0851,-0.007 -0.15746,-0.0844 -0.15746,-0.17705 v -0.34113 z m -1.08088,-0.10404 c 0,-0.0892 0.0695,-0.15754 0.15746,-0.14779 0.0539,0.007 0.10779,0.0106 0.16311,0.0162 0.0851,0.007 0.15463,0.091 0.15463,0.18031 v 0.34112 c 0,0.0926 -0.0695,0.15918 -0.15463,0.14945 -0.054,-0.004 -0.10779,-0.0106 -0.16168,-0.0162 -0.088,-0.01 -0.15746,-0.0894 -0.15746,-0.18193 0,-0.11371 0,-0.22741 0,-0.34113 z m -1.08369,-0.13156 c 0,-0.0892 0.0724,-0.15593 0.15745,-0.14457 0.0539,0.007 0.1078,0.0146 0.16312,0.0211 0.0851,0.0106 0.15745,0.0959 0.15745,0.18518 v 0.34113 c 0,0.0926 -0.0724,0.15594 -0.15745,0.14619 -0.054,-0.007 -0.1078,-0.013 -0.16312,-0.0211 -0.0851,-0.0106 -0.15745,-0.0943 -0.15745,-0.18518 v -0.34112 z m -1.08087,-0.15755 c 0,-0.0892 0.0694,-0.15434 0.15745,-0.14135 0.0526,0.007 0.10638,0.0162 0.15886,0.0245 0.088,0.013 0.15745,0.0991 0.15745,0.18842 0,0.11361 0,0.22742 0,0.34113 0,0.0926 -0.0694,0.15431 -0.15745,0.14131 -0.0525,-0.007 -0.10638,-0.0162 -0.15886,-0.0244 -0.088,-0.013 -0.15745,-0.0975 -0.15745,-0.19006 0,-0.11359 0,-0.2274 0,-0.34111 z m -1.08086,-0.18195 c 0,-0.0892 0.071,-0.15268 0.15743,-0.13644 0.054,0.01 0.10781,0.0195 0.16172,0.0276 0.0851,0.0146 0.15744,0.10234 0.15744,0.19169 0,0.11372 0,0.2274 0,0.34111 0,0.0926 -0.0724,0.15269 -0.15744,0.13807 -0.0539,-0.01 -0.1078,-0.0195 -0.16172,-0.0276 -0.0851,-0.0146 -0.15743,-0.10076 -0.15743,-0.1933 0,-0.11372 0,-0.22742 0,-0.34113 z m -1.08088,-0.20467 c 0,-0.0894 0.0695,-0.15106 0.15745,-0.13482 0.0525,0.01 0.10639,0.0211 0.16029,0.0308 0.088,0.0162 0.15745,0.10563 0.15745,0.19493 v 0.34113 c 0,0.0926 -0.0694,0.15268 -0.15745,0.13481 -0.0539,-0.01 -0.10638,-0.0211 -0.16029,-0.0308 -0.088,-0.0179 -0.15745,-0.10393 -0.15745,-0.19656 0,-0.11371 0,-0.2274 0,-0.3411 z m -1.0837,-0.22579 c 0,-0.0892 0.0724,-0.14944 0.15745,-0.13158 0.0539,0.0106 0.10781,0.0228 0.1617,0.0342 0.0851,0.0179 0.15745,0.10891 0.15745,0.19819 v 0.3411 c 0,0.0926 -0.0724,0.14945 -0.15745,0.13157 -0.0539,-0.0106 -0.1078,-0.0228 -0.1617,-0.0341 -0.0851,-0.018 -0.15745,-0.10725 -0.15745,-0.1998 v -0.34111 z m -1.08087,-0.24366 c 0,-0.0892 0.0694,-0.14944 0.15462,-0.12994 0.0539,0.013 0.1078,0.0244 0.16312,0.0374 0.088,0.0194 0.15744,0.11207 0.15744,0.20141 0,0.11361 0,0.22743 0,0.34114 0,0.0926 -0.0694,0.14945 -0.15744,0.12994 -0.0539,-0.013 -0.10781,-0.0244 -0.16312,-0.0374 -0.0851,-0.0195 -0.15462,-0.10878 -0.15462,-0.20142 z m -1.08371,-0.2615 c 0,-0.0894 0.0694,-0.14784 0.15746,-0.12673 0.0539,0.013 0.10781,0.0259 0.16312,0.0406 0.0851,0.0211 0.15745,0.11373 0.15745,0.20305 0,0.1136 0,0.22742 0,0.34275 0,0.0926 -0.0724,0.14783 -0.15745,0.1267 -0.0539,-0.013 -0.1078,-0.0258 -0.16312,-0.0406 -0.088,-0.0211 -0.15746,-0.11208 -0.15746,-0.20468 0,-0.11359 0,-0.2274 0,-0.3411 z m -1.0837,-0.27617 c 0,-0.0892 0.071,-0.1462 0.15745,-0.12507 0.054,0.0146 0.1078,0.0276 0.1617,0.0422 0.088,0.0228 0.15746,0.11536 0.15746,0.20466 v 0.34114 c 0,0.0926 -0.0695,0.1478 -0.15746,0.12507 -0.0539,-0.0146 -0.10779,-0.0277 -0.1617,-0.0423 -0.0851,-0.0228 -0.15745,-0.1136 -0.15745,-0.2063 0,-0.1136 0,-0.22742 0,-0.34113 z m -1.08086,-0.28752 c 0,-0.0894 0.0694,-0.14618 0.15745,-0.12181 0.0539,0.0146 0.1078,0.0292 0.16312,0.0439 0.0851,0.0228 0.15462,0.1169 0.15462,0.2063 v 0.34111 c 0,0.0926 -0.0695,0.14619 -0.15462,0.12346 -0.0539,-0.0146 -0.1078,-0.0292 -0.16171,-0.0439 -0.088,-0.0244 -0.15745,-0.11537 -0.15745,-0.20793 v -0.34113 z m -1.08371,-0.29888 c 0,-0.0894 0.0724,-0.14457 0.15744,-0.12183 0.0539,0.0146 0.10781,0.0308 0.16172,0.0456 0.0851,0.0244 0.15744,0.12017 0.15744,0.20954 0,0.11359 0,0.22742 0,0.34113 0,0.0926 -0.0724,0.14457 -0.15744,0.12182 -0.0539,-0.0146 -0.1078,-0.0308 -0.16312,-0.0453 -0.0851,-0.0244 -0.15746,-0.1169 -0.15746,-0.20958 0,-0.11359 0,-0.22741 0,-0.34111 z m -1.08086,-0.30701 c 0,-0.0894 0.0694,-0.14456 0.15744,-0.12017 0.054,0.0162 0.10781,0.0308 0.1617,0.0471 0.0851,0.0244 0.15462,0.12017 0.15462,0.20954 0,0.11372 0,0.22741 0,0.34113 0,0.0926 -0.0694,0.14619 -0.15462,0.12182 -0.0539,-0.0146 -0.10779,-0.0308 -0.1617,-0.047 -0.088,-0.0258 -0.15744,-0.11859 -0.15744,-0.20954 v -0.34111 z m -1.08372,-0.31511 c 0,-0.0892 0.0724,-0.14459 0.15745,-0.11861 0.054,0.0162 0.10781,0.0324 0.16313,0.0472 0.0851,0.0244 0.15745,0.12183 0.15745,0.21117 0,0.11359 0,0.22741 0,0.34112 0,0.0926 -0.0724,0.14458 -0.15745,0.12016 -0.0539,-0.0162 -0.1078,-0.0324 -0.16313,-0.047 -0.0851,-0.0245 -0.15745,-0.11859 -0.15745,-0.21117 0,-0.1136 0,-0.22741 0,-0.34112 z m -1.08086,-0.31839 c 0,-0.0892 0.0694,-0.14458 0.15745,-0.11861 0.054,0.0162 0.10638,0.0308 0.16028,0.0472 0.088,0.0259 0.15746,0.12183 0.15746,0.21118 v 0.34111 c 0,0.0926 -0.0694,0.14457 -0.15746,0.11861 -0.0539,-0.0162 -0.10638,-0.0308 -0.16028,-0.0472 -0.088,-0.0258 -0.15745,-0.12017 -0.15745,-0.21117 z m -1.08371,-0.32163 c 0,-0.0894 0.071,-0.14457 0.15746,-0.1186 0.0539,0.0162 0.1078,0.0324 0.16311,0.0487 0.0851,0.0259 0.15746,0.12183 0.15746,0.21118 v 0.34111 c 0,0.0926 -0.0724,0.14294 -0.15746,0.11862 -0.0539,-0.0162 -0.10779,-0.0324 -0.16311,-0.0488 -0.0851,-0.0259 -0.15746,-0.12018 -0.15746,-0.21117 z m 0.47803,7.47216 c 0,0.0926 -0.0724,0.14458 -0.15746,0.11861 -0.0539,-0.0162 -0.10779,-0.0324 -0.16311,-0.0487 -0.0851,-0.0259 -0.15746,-0.12016 -0.15746,-0.21117 v -0.34112 c 0,-0.0894 0.0724,-0.14294 0.15746,-0.1186 0.0539,0.0162 0.1078,0.0324 0.16311,0.0487 0.0851,0.0258 0.15746,0.12182 0.15746,0.21117 z m 1.08087,0.31999 c 0,0.0926 -0.0694,0.14458 -0.15746,0.11862 -0.0525,-0.0162 -0.10638,-0.0308 -0.16028,-0.047 -0.088,-0.0258 -0.15745,-0.1186 -0.15745,-0.21116 0,-0.11361 0,-0.22743 0,-0.34114 0,-0.0892 0.0694,-0.14456 0.15745,-0.11859 0.054,0.0162 0.10638,0.0308 0.16028,0.0471 0.088,0.0258 0.15746,0.12182 0.15746,0.21116 z m 1.0837,0.3184 c 0,0.0925 -0.071,0.14457 -0.15745,0.11859 -0.0539,-0.0162 -0.1078,-0.0308 -0.16313,-0.0471 -0.0851,-0.0244 -0.15745,-0.11862 -0.15745,-0.21116 0,-0.11372 0,-0.22741 0,-0.34113 0,-0.0894 0.0724,-0.14457 0.15745,-0.1186 0.054,0.0162 0.10781,0.0324 0.16313,0.047 0.0851,0.0245 0.15745,0.12182 0.15745,0.21117 0,0.11359 0,0.22741 0,0.34113 z m 1.08086,0.31024 c 0,0.0926 -0.0694,0.1462 -0.1546,0.12184 -0.0539,-0.0146 -0.10781,-0.0308 -0.16171,-0.0456 -0.088,-0.0259 -0.15745,-0.11859 -0.15745,-0.21117 v -0.3411 c 0,-0.0894 0.0695,-0.1462 0.15745,-0.12017 0.0539,0.0146 0.10781,0.0308 0.16171,0.047 0.0851,0.0245 0.1546,0.12017 0.1546,0.20954 v 0.34112 z m 1.08371,0.30378 c 0,0.0926 -0.0724,0.14455 -0.15745,0.12181 -0.0539,-0.0146 -0.1078,-0.0292 -0.1617,-0.0455 -0.0851,-0.0244 -0.15745,-0.1169 -0.15745,-0.20954 v -0.34112 c 0,-0.0894 0.0724,-0.14456 0.15745,-0.12183 0.0539,0.0146 0.10781,0.0308 0.1617,0.0456 0.0851,0.0244 0.15745,0.11861 0.15745,0.20954 z m 1.08088,0.29401 c 0,0.0926 -0.0695,0.14618 -0.15462,0.12344 -0.0539,-0.0146 -0.1078,-0.0292 -0.16312,-0.0439 -0.088,-0.0244 -0.15745,-0.11536 -0.15745,-0.20793 v -0.3411 c 0,-0.0894 0.0694,-0.1462 0.15745,-0.12184 0.0539,0.0146 0.1078,0.0292 0.1617,0.0439 0.0851,0.0228 0.15462,0.1169 0.15462,0.20628 0,0.1136 0,0.22742 0,0.34114 z m 1.08369,0.28264 c 0,0.0925 -0.0694,0.14782 -0.15745,0.12507 -0.0539,-0.0146 -0.1078,-0.0276 -0.1617,-0.0422 -0.0851,-0.0228 -0.15745,-0.11372 -0.15745,-0.20629 0,-0.11373 0,-0.22742 0,-0.34114 0,-0.0892 0.071,-0.14617 0.15745,-0.12506 0.0539,0.0146 0.10781,0.0276 0.1617,0.0423 0.088,0.0228 0.15745,0.11537 0.15745,0.20468 v 0.34114 z m 1.08371,0.26964 c 0,0.0926 -0.0724,0.14781 -0.15745,0.1267 -0.0539,-0.013 -0.1078,-0.0259 -0.16312,-0.0391 -0.088,-0.0211 -0.15746,-0.11208 -0.15746,-0.20468 v -0.34113 c 0,-0.0892 0.0694,-0.1478 0.15746,-0.12669 0.0539,0.013 0.10781,0.0258 0.16312,0.0406 0.0851,0.0211 0.15745,0.11372 0.15745,0.20304 z m 0.34043,-0.58478 c -2.79012,-0.66274 -5.58023,-1.48468 -8.37034,-2.31636 0,-1.99799 0,-3.99598 0,-5.99398 2.79011,0.83169 5.58022,1.65362 8.37034,2.31637 0,1.99799 0,3.99599 0,5.99397 z m 0.74043,0.83818 c 0,0.0926 -0.0694,0.14946 -0.15744,0.12995 -0.0539,-0.013 -0.10781,-0.0244 -0.16312,-0.0374 -0.0851,-0.0195 -0.15462,-0.10879 -0.15462,-0.20142 0,-0.11372 0,-0.22742 0,-0.34112 0,-0.0892 0.0694,-0.14945 0.15462,-0.12996 0.0539,0.013 0.1078,0.0244 0.16312,0.0374 0.088,0.0195 0.15744,0.11206 0.15744,0.20141 z m 1.08372,0.23716 c 0,0.0926 -0.071,0.15106 -0.15746,0.13158 -0.0539,-0.0106 -0.1078,-0.0228 -0.16312,-0.0341 -0.0851,-0.018 -0.15745,-0.10713 -0.15745,-0.19981 0,-0.11361 0,-0.22741 0,-0.34111 0,-0.0894 0.0724,-0.14945 0.15745,-0.13157 0.0539,0.0106 0.10781,0.0227 0.1617,0.0341 0.0851,0.0179 0.15745,0.10889 0.15745,0.19815 0,0.11372 0,0.22742 0,0.34113 z m 1.08086,0.21605 c 0,0.0926 -0.0694,0.1527 -0.15745,0.13482 -0.0525,-0.01 -0.10638,-0.0211 -0.16029,-0.0308 -0.088,-0.0179 -0.15745,-0.10393 -0.15745,-0.19656 v -0.34111 c 0,-0.0892 0.0695,-0.15106 0.15745,-0.13482 0.0539,0.01 0.10639,0.0211 0.16029,0.0308 0.088,0.0179 0.15745,0.10563 0.15745,0.19653 z m 1.08371,0.19654 c 0,0.0926 -0.0724,0.15269 -0.15746,0.13808 -0.0539,-0.01 -0.10779,-0.0195 -0.16171,-0.0292 -0.0851,-0.0146 -0.15744,-0.10076 -0.15744,-0.19331 v -0.34112 c 0,-0.0894 0.0724,-0.1527 0.15744,-0.13806 0.0539,0.01 0.10781,0.0195 0.16171,0.0276 0.0851,0.0146 0.15746,0.10234 0.15746,0.19167 v 0.34113 z m 1.07944,0.17219 c 0,0.0926 -0.0695,0.15431 -0.15745,0.14133 -0.0525,-0.007 -0.10638,-0.0162 -0.1603,-0.0244 -0.088,-0.013 -0.15743,-0.0975 -0.15743,-0.19006 0,-0.11371 0,-0.22741 0,-0.34111 0,-0.0892 0.0694,-0.15432 0.15743,-0.14132 0.0539,0.007 0.10639,0.0162 0.1603,0.0244 0.088,0.013 0.15745,0.0991 0.15745,0.18844 0,0.1136 0,0.2274 0,0.34111 z m 1.08371,0.1462 c 0,0.0926 -0.0724,0.15594 -0.15745,0.14619 -0.054,-0.007 -0.10781,-0.013 -0.16313,-0.0211 -0.0851,-0.0106 -0.15745,-0.0943 -0.15745,-0.18518 0,-0.11361 0,-0.22742 0,-0.34113 0,-0.0894 0.0724,-0.15592 0.15745,-0.14456 0.0539,0.007 0.1078,0.0146 0.16313,0.0211 0.085,0.0106 0.15745,0.0959 0.15745,0.18519 0,0.11373 0,0.22741 0,0.34112 z m 1.08086,0.1186 c 0,0.0925 -0.0694,0.15919 -0.15461,0.14945 -0.054,-0.004 -0.10781,-0.0106 -0.16171,-0.0162 -0.088,-0.01 -0.15744,-0.0892 -0.15744,-0.18193 v -0.34112 c 0,-0.0894 0.0694,-0.15756 0.15744,-0.14782 0.0539,0.007 0.10781,0.0106 0.16171,0.0162 0.0851,0.007 0.15461,0.091 0.15461,0.18031 z m 1.08371,0.0894 c 0,0.0925 -0.0724,0.16079 -0.15746,0.15431 -0.054,-0.003 -0.10779,-0.007 -0.1617,-0.013 -0.0851,-0.007 -0.15744,-0.0844 -0.15744,-0.17706 0,-0.11372 0,-0.22742 0,-0.34112 0,-0.0892 0.0724,-0.1592 0.15744,-0.15269 0.0539,0.004 0.10781,0.007 0.16313,0.013 0.0851,0.007 0.15746,0.0877 0.15746,0.17707 0,0.11372 0,0.22741 0,0.34112 z m 0.4681,-0.63676 c -2.79012,-0.15757 -5.58024,-0.63515 -8.37035,-1.28002 0,-1.998 0,-3.99599 0,-5.99398 2.79011,0.64652 5.58023,1.12407 8.37176,1.28002 0,1.99799 0,3.99598 0,5.99398 z m 0.61561,0.69523 c 0,0.0926 -0.0724,0.16243 -0.15745,0.1592 -0.0539,-0.001 -0.1078,-0.004 -0.16313,-0.007 -0.088,-0.004 -0.15745,-0.0813 -0.15745,-0.17219 0,-0.11373 0,-0.22742 0,-0.34113 0,-0.0893 0.0694,-0.16243 0.15745,-0.15757 0.0539,0.003 0.10781,0.004 0.16313,0.007 0.0851,0.003 0.15745,0.0829 0.15745,0.1722 0,0.11361 0,0.22741 0,0.34112 z m 1.08086,0.0259 c 0,0.0925 -0.0694,0.16569 -0.15746,0.16406 -0.0539,0 -0.10779,0 -0.16311,-0.001 -0.0851,0 -0.15461,-0.0763 -0.15461,-0.16893 v -0.34112 c 0,-0.0894 0.0694,-0.16406 0.15461,-0.16244 0.0539,0 0.10922,10e-4 0.16311,10e-4 0.088,0 0.15746,0.078 0.15746,0.1673 0,0.11371 0,0.22741 0,0.34111 z m 1.08371,-0.01 c 0,0.0925 -0.071,0.16732 -0.15745,0.16895 -0.0539,0 -0.1078,10e-4 -0.16314,0.003 -0.0851,0 -0.15743,-0.0697 -0.15743,-0.16245 v -0.34111 c 0,-0.0894 0.0724,-0.16569 0.15743,-0.16731 0.0539,0 0.10782,-0.001 0.16171,-0.003 0.0851,0 0.15746,0.0715 0.15746,0.16244 v 0.34112 z m 1.08085,-0.047 c 0,0.0925 -0.0694,0.16893 -0.15744,0.1738 -0.0539,0.003 -0.10921,0.007 -0.16313,0.007 -0.0851,0.004 -0.1546,-0.065 -0.1546,-0.15755 v -0.34113 c 0,-0.0894 0.0694,-0.16893 0.1546,-0.17219 0.0539,-0.003 0.10781,-0.007 0.16313,-0.007 0.088,-0.004 0.15744,0.0666 0.15744,0.15594 0,0.11373 0,0.22742 0,0.34113 z m 1.08372,-0.0861 c 0,0.0926 -0.0724,0.17219 -0.15745,0.18031 -0.0539,0.004 -0.1078,0.01 -0.16171,0.0146 -0.0851,0.007 -0.15744,-0.0601 -0.15744,-0.15105 v -0.34113 c 0,-0.0892 0.0724,-0.17056 0.15744,-0.17869 0.054,-0.004 0.1078,-0.01 0.16313,-0.0146 0.0851,-0.007 0.15745,0.0601 0.15745,0.14945 0,0.11371 0,0.22741 0,0.34111 z m 1.08086,-0.1267 c 0,0.0926 -0.0694,0.17544 -0.15745,0.1868 -0.0525,0.007 -0.10639,0.013 -0.16028,0.0211 -0.088,0.0106 -0.15746,-0.0535 -0.15746,-0.14619 v -0.34114 c 0,-0.0894 0.0694,-0.1738 0.15746,-0.18517 0.054,-0.007 0.10639,-0.013 0.16028,-0.0211 0.088,-0.0106 0.15745,0.0553 0.15745,0.14457 0,0.1136 0,0.22742 0,0.34112 z m 1.08371,-0.17055 c 0,0.0926 -0.0724,0.17868 -0.15744,0.1933 -0.0539,0.01 -0.10782,0.0179 -0.16314,0.0277 -0.0851,0.0146 -0.15744,-0.047 -0.15744,-0.13969 v -0.34112 c 0,-0.0894 0.0724,-0.17706 0.15744,-0.19005 0.054,-0.01 0.10782,-0.0179 0.16171,-0.0277 0.0851,-0.0146 0.15744,0.0487 0.15744,0.13808 0,0.1136 0,0.22742 0,0.34112 z m 1.08086,-0.21604 c 0,0.0926 -0.0694,0.1803 -0.15461,0.19817 -0.0539,0.0106 -0.1078,0.0228 -0.16312,0.0341 -0.088,0.0179 -0.15745,-0.0406 -0.15745,-0.1332 v -0.34091 c 0,-0.0892 0.0694,-0.17867 0.15745,-0.19815 0.0539,-0.0106 0.1078,-0.0228 0.1617,-0.0341 0.0851,-0.018 0.15461,0.0423 0.15461,0.13156 0,0.11373 0,0.22741 0,0.34113 z m 0.59434,-0.80408 c -2.79011,0.68225 -5.58023,0.88531 -8.37034,0.76022 0,-1.99799 0,-3.99599 0,-5.99397 2.79011,0.12507 5.58023,-0.078 8.37177,-0.76023 0,1.998 0,3.99599 0,5.99236 z"
       id="path944" />
    <text
       id="text817"
       y="288.11792"
       x="-0.16019693"
       style="font-style:normal;font-weight:normal;font-size:10.58333302px;line-height:125%;font-family:sans-serif;letter-spacing:0px;word-spacing:0px;fill:url(#linearGradient1083);fill-opacity:1;stroke:none;stroke-width:0.26458332px;stroke-linecap:butt;stroke-linejoin:miter;stroke-opacity:1"
       xml:space="preserve"><tspan
         style="font-style:italic;font-variant:normal;font-weight:bold;font-stretch:normal;font-family:sans-serif;-inkscape-font-specification:'sans-serif Bold Italic';fill:url(#linearGradient1083);fill-opacity:1;stroke-width:0.26458332px"
         y="288.11792"
         x="-0.16019693"
         id="tspan815">Smart</tspan></text>
    <text
       id="text821"
       y="296.85013"
       x="35.573975"
       style="font-style:normal;font-weight:normal;font-size:10.58333302px;line-height:125%;font-family:sans-serif;letter-spacing:0px;word-spacing:0px;fill:url(#linearGradient1109);fill-opacity:1;stroke:none;stroke-width:0.26458332px;stroke-linecap:butt;stroke-linejoin:miter;stroke-opacity:1"
       xml:space="preserve"><tspan
         style="font-style:italic;font-variant:normal;font-weight:bold;font-stretch:normal;font-family:sans-serif;-inkscape-font-specification:'sans-serif Bold Italic';fill:url(#linearGradient1109);stroke-width:0.26458332px"
         y="296.85013"
         x="35.573975"
         id="tspan819">Cut</tspan></text>
  </g>
</svg>
